<?xml version="1.0" encoding="iso-8859-1"?>
<!-- Generator: Adobe Illustrator 19.0.0, SVG Export Plug-In . SVG Version: 6.00 Build 0)  -->
<svg version="1.1" id="Capa_1" xmlns="http://www.w3.org/2000/svg" xmlns:xlink="http://www.w3.org/1999/xlink" x="0px" y="0px"
	 viewBox="0 0 512 512" style="enable-background:new 0 0 512 512;" xml:space="preserve">
<circle style="fill:#D9E021;" cx="256" cy="256" r="256"/>
<path style="fill:#8CC63F;" d="M509.146,294.299L336.364,121.517L78.035,322.44l44.927,44.927l-23.684,13.186l130.071,130.071
	C238.11,511.53,247,512,256,512C384.368,512,490.661,417.516,509.146,294.299z"/>
<polygon style="fill:#E0E0E0;" points="260.684,380.553 153.715,380.553 169.119,301.154 245.28,301.154 "/>
<polygon style="fill:#C0C0C0;" points="245.28,301.154 207,301.154 207,380.552 260.684,380.552 "/>
<rect x="78.03" y="121.52" style="fill:#1A1A1A;" width="258.33" height="182.98"/>
<rect x="207" y="121.52" width="129.36" height="182.98"/>
<rect x="95.67" y="138.73" style="fill:#35CCFF;" width="223.07" height="173.5"/>
<rect x="207" y="138.73" style="fill:#00BAFF;" width="111.73" height="173.5"/>
<rect x="78.03" y="269.67" style="fill:#FFFFFF;" width="258.33" height="52.773"/>
<g>
	<rect x="207" y="269.67" style="fill:#E0E0E0;" width="129.36" height="52.773"/>
	<circle style="fill:#E0E0E0;" cx="207.2" cy="293.13" r="11.373"/>
</g>
<path style="fill:#C0C0C0;" d="M207.199,281.754c-0.067,0-0.133,0.009-0.199,0.01v22.726c0.067,0.001,0.132,0.01,0.199,0.01
	c6.281,0,11.373-5.092,11.373-11.373C218.572,286.846,213.48,281.754,207.199,281.754z"/>
<rect x="242" y="243" style="fill:#333333;" width="189.5" height="123"/>
<rect x="336" y="243" style="fill:#1A1A1A;" width="95.5" height="123"/>
<rect x="255.32" y="256.31" style="fill:#35CCFF;" width="162.85" height="105.7"/>
<rect x="336" y="256.31" style="fill:#00BAFF;" width="82.18" height="105.7"/>
<rect x="232.92" y="352.22" style="fill:#1A1A1A;" width="207.67" height="28.333"/>
<rect x="336" y="352.22" width="104.58" height="28.333"/>
<rect x="99.28" y="220.86" style="fill:#333333;" width="91.45" height="159.69"/>
<rect x="145" y="220.86" style="fill:#1A1A1A;" width="45.729" height="159.69"/>
<rect x="108.89" y="230.59" style="fill:#B9EAFF;" width="72.22" height="124.98"/>
<rect x="145" y="230.59" style="fill:#35CCFF;" width="36.12" height="124.98"/>
<circle style="fill:#4D4D4D;" cx="145" cy="367.3" r="7.152"/>
<path style="fill:#333333;" d="M145.004,360.152c-0.001,0-0.002,0-0.004,0v14.304c0.001,0,0.002,0,0.004,0
	c3.95,0,7.152-3.202,7.152-7.152C152.156,363.354,148.954,360.152,145.004,360.152z"/>
<g>
</g>
<g>
</g>
<g>
</g>
<g>
</g>
<g>
</g>
<g>
</g>
<g>
</g>
<g>
</g>
<g>
</g>
<g>
</g>
<g>
</g>
<g>
</g>
<g>
</g>
<g>
</g>
<g>
</g>
</svg>
