<?xml version="1.0" encoding="iso-8859-1"?>
<!-- Generator: Adobe Illustrator 19.1.0, SVG Export Plug-In . SVG Version: 6.00 Build 0)  -->
<svg version="1.1" id="Capa_1" xmlns="http://www.w3.org/2000/svg" xmlns:xlink="http://www.w3.org/1999/xlink" x="0px" y="0px"
	 viewBox="0 0 460.36 460.36" style="enable-background:new 0 0 460.36 460.36;" xml:space="preserve">
<g>
	<g id="XMLID_3_">
		<g>
			<path style="fill:#4489D3;" d="M411.83,232.715c21.79,0,39.53,17.73,39.53,39.53v4.96h-50.22v-4.96
				c0-16.29-8.08-30.72-20.43-39.53H411.83z"/>
			<path d="M165.29,123.845c8.91,4.61,16.85,10.82,23.44,18.26l67.75,33.59c-3.83-13.25-11.45-25.23-22.02-34.38
				c-13.02-11.26-29.68-17.47-46.93-17.47H165.29z M9,320.205c0,8.99,7.31,16.31,16.3,16.31h306.5c8.99,0,16.31-7.32,16.31-16.31
				v-87.49h-25.36c-6.29,0-11.4,5.11-11.4,11.4c0,30.68-24.96,55.64-55.65,55.64c-30.68,0-55.64-24.96-55.64-55.64v-48.53
				c0-39.56-32.18-71.74-71.74-71.74H80.74c-39.56,0-71.74,32.18-71.74,71.74V320.205z M209.06,244.115
				c0,13.97,6.18,26.52,15.95,35.07c9.88-14.14,15.09-30.68,15.09-48.12c0-2.86-0.15-5.7-0.43-8.47l-30.61-15.17V244.115z
				 M255.7,290.755c7.89,0,15.31-1.97,21.83-5.44c-11.53-10.49-18.25-25.46-18.25-41.2v-11.8l-10.27-5.09
				c0.05,1.28,0.09,2.56,0.09,3.84c0,19.35-5.79,37.69-16.78,53.38C239.2,288.455,247.19,290.755,255.7,290.755z M199.48,157.475
				c6.1,11.36,9.58,24.34,9.58,38.11v1.79l93.31,46.26c0.26-11.03,9.29-19.92,20.38-19.92h10.31L199.48,157.475z M401.14,272.245
				v4.96h50.22v-4.96c0-21.8-17.74-39.53-39.53-39.53h-31.12C393.06,241.525,401.14,255.955,401.14,272.245z M460.36,272.245v13.96
				h-44.03v34c0,13.96-11.36,25.31-25.31,25.31H331.8H25.3c-13.95,0-25.3-11.35-25.3-25.31v-124.62c0-44.52,36.22-80.74,80.74-80.74
				h47.58h59.21c19.41,0,38.17,6.99,52.82,19.67c13.9,12.02,23.26,28.42,26.58,46.36l86.39,42.84h58.51
				C438.59,223.715,460.36,245.485,460.36,272.245z M407.33,320.205v-34h-15.19v-13.96c0-20.27-15.35-37.02-35.03-39.27v87.23
				c0,6.21-2.25,11.9-5.98,16.31h39.89C400.01,336.515,407.33,329.205,407.33,320.205z M301.45,253.225l-33.17-16.45v7.34
				c0,13.96,6.31,27.18,17.02,36.02C293.47,273.415,299.31,263.975,301.45,253.225z"/>
			<path style="fill:#60A57C;" d="M357.11,232.975c19.68,2.25,35.03,19,35.03,39.27v13.96h15.19v34c0,9-7.32,16.31-16.31,16.31
				h-39.89c3.73-4.41,5.98-10.1,5.98-16.31V232.975z"/>
			<path style="fill:#4489D3;" d="M333.06,223.715h-10.31c-11.09,0-20.12,8.89-20.38,19.92l-93.31-46.26v-1.79
				c0-13.77-3.48-26.75-9.58-38.11L333.06,223.715z"/>
			<path style="fill:#60A57C;" d="M259.28,244.115c0,15.74,6.72,30.71,18.25,41.2c-6.52,3.47-13.94,5.44-21.83,5.44
				c-8.51,0-16.5-2.3-23.38-6.31c10.99-15.69,16.78-34.03,16.78-53.38c0-1.28-0.04-2.56-0.09-3.84l10.27,5.09V244.115z"/>
			<path style="fill:#6BCE95;" d="M65.56,230.185c0,22.52,18.32,40.84,40.84,40.84s40.84-18.32,40.84-40.84
				s-18.32-40.84-40.84-40.84S65.56,207.665,65.56,230.185z M255.7,299.755c30.69,0,55.65-24.96,55.65-55.64
				c0-6.29,5.11-11.4,11.4-11.4h25.36v87.49c0,8.99-7.32,16.31-16.31,16.31H25.3c-8.99,0-16.3-7.32-16.3-16.31v-124.62
				c0-39.56,32.18-71.74,71.74-71.74h47.58c39.56,0,71.74,32.18,71.74,71.74v48.53C200.06,274.795,225.02,299.755,255.7,299.755z"/>
			<path style="fill:#60A57C;" d="M234.46,141.315c10.57,9.15,18.19,21.13,22.02,34.38l-67.75-33.59
				c-6.59-7.44-14.53-13.65-23.44-18.26h22.24C204.78,123.845,221.44,130.055,234.46,141.315z"/>
			<path style="fill:#4489D3;" d="M239.67,222.595c0.28,2.77,0.43,5.61,0.43,8.47c0,17.44-5.21,33.98-15.09,48.12
				c-9.77-8.55-15.95-21.1-15.95-35.07v-36.69L239.67,222.595z"/>
			<path d="M74.56,230.185c0,17.55,14.28,31.84,31.84,31.84c17.55,0,31.84-14.29,31.84-31.84c0-17.56-14.29-31.84-31.84-31.84
				C88.84,198.345,74.56,212.625,74.56,230.185z M106.4,189.345c22.52,0,40.84,18.32,40.84,40.84s-18.32,40.84-40.84,40.84
				s-40.84-18.32-40.84-40.84S83.88,189.345,106.4,189.345z"/>
			<path style="fill:#60A57C;" d="M74.56,230.185c0-17.56,14.28-31.84,31.84-31.84c17.55,0,31.84,14.28,31.84,31.84
				c0,17.55-14.29,31.84-31.84,31.84C88.84,262.025,74.56,247.735,74.56,230.185z"/>
		</g>
	</g>
</g>
<g>
</g>
<g>
</g>
<g>
</g>
<g>
</g>
<g>
</g>
<g>
</g>
<g>
</g>
<g>
</g>
<g>
</g>
<g>
</g>
<g>
</g>
<g>
</g>
<g>
</g>
<g>
</g>
<g>
</g>
</svg>
