<?xml version="1.0" encoding="iso-8859-1"?>
<!-- Generator: Adobe Illustrator 19.0.0, SVG Export Plug-In . SVG Version: 6.00 Build 0)  -->
<svg version="1.1" id="Capa_1" xmlns="http://www.w3.org/2000/svg" xmlns:xlink="http://www.w3.org/1999/xlink" x="0px" y="0px"
	 viewBox="0 0 512 512" style="enable-background:new 0 0 512 512;" xml:space="preserve">
<path style="fill:#91CDFF;" d="M260.317,4.317C121.317,4.317,8.635,116.999,8.635,256c0,61.081,21.83,117.234,57.92,160.628
	c17.301,20.806,32.403,32.397,34.595,34.346c2.076,0,59.014,56.709,159.167,56.709C399.318,507.682,512,395.001,512,256
	C512,117.243,399.574,4.317,260.317,4.317z"/>
<path style="fill:#FF73A0;" d="M495.976,144.344l-76.191,73.488c-3.087,2.973-8.007,2.89-10.99-0.197
	c-2.973-3.087-2.89-8.007,0.197-10.99l76.202-73.488c13.734-13.248,14.128-35.206,0.88-48.94
	c-13.248-13.745-35.206-14.138-48.951-0.891l-93.458,90.143l-19.731,19.027c-8.027,7.748-8.265,20.591-0.518,28.618
	c7.748,8.038,20.581,8.265,28.618,0.518l20.363-19.638l92.691-89.398c2.465-2.382,2.538-6.339,0.155-8.814
	c-2.393-2.476-6.339-2.548-8.814-0.155l-76.057,73.343c-3.087,2.983-8.007,2.89-10.979-0.197c-2.983-3.087-2.89-8.007,0.197-10.979
	l76.046-73.353c8.649-8.338,22.456-8.079,30.794,0.559c8.328,8.638,8.079,22.445-0.559,30.783l-97.083,93.634l-15.972,15.402
	c-14.2,13.693-36.894,13.279-50.587-0.922c-13.693-14.19-13.279-36.884,0.922-50.577l14.729-14.2l98.461-94.97
	c19.908-19.203,51.716-18.623,70.919,1.284C516.453,93.332,515.884,125.151,495.976,144.344z"/>
<path style="fill:#644682;" d="M177.093,303.355c-13.89,14.014-36.583,14.107-50.597,0.217l-20.166-20.001l-91.511-90.713
	c-19.638-19.473-19.773-51.291-0.311-70.93c19.473-19.638,51.291-19.773,70.93-0.3l75.176,74.524
	c3.045,3.024,3.066,7.934,0.041,10.99c-3.014,3.045-7.934,3.066-10.979,0.041L74.5,132.66
	c-13.558-13.444-35.517-13.351-48.951,0.207c-13.444,13.558-13.351,35.517,0.207,48.951l88.134,87.388l23.543,23.336
	c7.924,7.862,20.767,7.799,28.618-0.124c7.862-7.924,7.81-20.767-0.124-28.618l-20.715-20.539l-90.817-90.04
	c-2.444-2.424-6.401-2.403-8.814,0.031c-2.424,2.444-2.413,6.401,0.031,8.825l75.031,74.389c3.056,3.014,3.076,7.934,0.052,10.979
	c-3.024,3.056-7.934,3.076-10.99,0.052l-75.031-74.389c-8.524-8.452-8.587-22.269-0.135-30.794
	c8.452-8.524,22.269-8.576,30.794-0.124l96.907,96.078l14.625,14.501C190.879,266.658,190.972,289.352,177.093,303.355z"/>
<path style="fill:#F1EBED;" d="M326.949,113.022l-17.266,2.31l-138.607,18.561c-27.407,3.667-52.7-15.64-56.367-43.057
	c-3.667-27.407,15.64-52.69,43.057-56.367l104.913-14.045c4.257-0.57,8.162,2.424,8.732,6.67c0.57,4.257-2.413,8.162-6.66,8.732
	L159.827,49.871c-18.924,2.538-32.254,19.99-29.716,38.904c2.527,18.924,19.98,32.254,38.904,29.716l132.206-17.701l23.657-3.169
	c11.062-1.481,18.861-11.684,17.38-22.746c-1.481-11.052-11.684-18.851-22.746-17.37l-23.471,3.149L163.835,78.355
	c-3.408,0.456-5.811,3.594-5.355,7.002c0.456,3.408,3.604,5.811,7.012,5.355l104.727-14.024c4.247-0.57,8.162,2.413,8.732,6.67
	c0.57,4.247-2.424,8.162-6.67,8.732l-104.727,14.014c-11.901,1.595-22.88-6.784-24.465-18.685
	c-1.595-11.901,6.784-22.87,18.685-24.465l138.773-18.582l16.904-2.268c19.555-2.61,37.588,11.166,40.209,30.711
	C360.269,92.368,346.494,110.401,326.949,113.022z"/>
<path style="fill:#FFC364;" d="M303.716,376.067l-13.683,8.587l-119.507,75.031c-23.419,14.708-54.44,7.613-69.138-15.806
	c-14.708-23.429-7.613-54.44,15.806-69.148l89.656-56.284c3.625-2.279,8.421-1.181,10.71,2.455c2.279,3.625,1.181,8.421-2.455,10.71
	l-89.656,56.284c-16.158,10.151-21.057,31.55-10.907,47.718c10.151,16.168,31.56,21.057,47.718,10.917l114.142-71.665l19.048-11.953
	c9.457-5.935,12.315-18.447,6.38-27.904c-5.935-9.446-18.447-12.315-27.893-6.38l-18.747,11.777l-114.277,71.738
	c-2.911,1.823-3.791,5.686-1.968,8.597c1.833,2.911,5.686,3.791,8.597,1.968l89.48-56.18c3.636-2.289,8.431-1.191,10.71,2.444
	c2.289,3.636,1.191,8.431-2.444,10.71l-89.491,56.18c-10.161,6.38-23.626,3.304-30.006-6.867
	c-6.391-10.161-3.304-23.626,6.857-30.006l119.984-75.321l13.04-8.193c16.707-10.492,38.831-5.427,49.323,11.28
	C325.478,343.46,320.423,365.585,303.716,376.067z"/>
<path style="fill:#64AFFF;" d="M481.123,329.115l-48.474,94.1c-1.968,3.822-6.65,5.314-10.461,3.356
	c-3.822-1.968-5.314-6.65-3.356-10.472l48.484-94.1c8.742-16.966,2.051-37.878-14.915-46.62
	c-16.976-8.742-37.889-2.051-46.63,14.915l-62.778,121.859l-9.239,17.94c-5.117,9.923-1.202,22.145,8.721,27.262
	c9.912,5.106,22.145,1.191,27.251-8.721l13.04-25.325L441.66,309c1.574-3.056,0.373-6.815-2.683-8.39s-6.826-0.373-8.4,2.683
	l-48.391,93.924c-1.968,3.822-6.65,5.314-10.461,3.356c-3.812-1.968-5.314-6.65-3.346-10.472l48.381-93.924
	c5.5-10.668,18.654-14.884,29.333-9.384c10.668,5.5,14.874,18.654,9.384,29.323l-60.303,117.053l-11.632,22.58
	c-9.032,17.536-30.648,24.444-48.184,15.412c-17.536-9.032-24.455-30.649-15.423-48.184l4.153-8.069l67.874-131.73
	c12.657-24.589,42.964-34.284,67.553-21.617C484.096,274.229,493.791,304.536,481.123,329.115z"/>
<path style="fill:#FFAF37;" d="M303.716,376.067l-13.683,8.587c-4.92-2.734-9.498-6.028-13.631-9.788l19.048-11.953
	c9.457-5.935,12.315-18.447,6.38-27.904c-5.935-9.446-18.447-12.315-27.893-6.38l-18.747,11.777
	c-1.481-5.355-2.362-10.958-2.558-16.738l13.04-8.193c16.707-10.492,38.831-5.427,49.323,11.28
	C325.478,343.46,320.423,365.585,303.716,376.067z"/>
<path style="fill:#413255;" d="M177.093,303.355c-13.89,14.014-36.583,14.107-50.597,0.217l-20.166-20.001
	c1.989-5.096,4.537-9.912,7.561-14.366l23.543,23.336c7.924,7.861,20.767,7.799,28.618-0.124c7.862-7.924,7.81-20.767-0.124-28.618
	l-20.715-20.539c5.365-2.33,11.072-4.029,17.028-4.992l14.625,14.501C190.879,266.658,190.972,289.352,177.093,303.355z"/>
<path style="fill:#D2D2D7;" d="M326.949,113.022l-17.266,2.31c-3.356-4.475-6.204-9.353-8.462-14.542l23.657-3.169
	c11.062-1.481,18.861-11.684,17.38-22.746c-1.481-11.052-11.684-18.851-22.746-17.37l-23.471,3.149
	c0.87-5.666,2.393-11.124,4.506-16.282l16.904-2.268c19.555-2.61,37.588,11.166,40.209,30.711
	C360.269,92.368,346.494,110.401,326.949,113.022z"/>
<path style="fill:#FF4682;" d="M378.789,217.417l-15.972,15.402c-14.2,13.693-36.894,13.279-50.587-0.922
	c-13.693-14.19-13.279-36.884,0.922-50.577l14.729-14.2c5.552,1.502,10.845,3.646,15.785,6.349l-19.731,19.027
	c-8.027,7.748-8.265,20.591-0.518,28.618c7.748,8.038,20.581,8.265,28.618,0.518l20.363-19.638
	C375.081,206.821,377.246,211.99,378.789,217.417z"/>
<path style="fill:#1E8CE6;" d="M395.175,433.169l-11.632,22.58c-9.032,17.536-30.648,24.444-48.184,15.412
	c-17.536-9.032-24.455-30.649-15.423-48.184l4.153-8.069c6.018-1.709,12.357-2.662,18.903-2.755l-9.239,17.94
	c-5.117,9.923-1.202,22.145,8.721,27.262c9.912,5.106,22.145,1.191,27.251-8.721l13.04-25.325
	C387.262,426.136,391.415,429.45,395.175,433.169z"/>
<g>
</g>
<g>
</g>
<g>
</g>
<g>
</g>
<g>
</g>
<g>
</g>
<g>
</g>
<g>
</g>
<g>
</g>
<g>
</g>
<g>
</g>
<g>
</g>
<g>
</g>
<g>
</g>
<g>
</g>
</svg>
