<?xml version="1.0" encoding="iso-8859-1"?>
<!-- Generator: Adobe Illustrator 19.0.0, SVG Export Plug-In . SVG Version: 6.00 Build 0)  -->
<svg version="1.1" id="Capa_1" xmlns="http://www.w3.org/2000/svg" xmlns:xlink="http://www.w3.org/1999/xlink" x="0px" y="0px"
	 viewBox="0 0 512 512" style="enable-background:new 0 0 512 512;" xml:space="preserve">
<circle style="fill:#FF7473;" cx="256" cy="256" r="256"/>
<path style="fill:#DA1716;" d="M508.965,295.5L394.667,181.201l-20.101-14.524l-49-49.343L117.333,394.667l116.355,116.355
	C241.043,511.656,248.481,512,256,512C383.951,512,489.972,418.129,508.965,295.5z"/>
<polygon style="fill:#D6E6FD;" points="325.566,117.334 221.45,117.334 210.608,256.044 221.45,394.667 325.566,394.667 "/>
<rect x="117.33" y="117.33" style="fill:#F4F4FF;" width="104.12" height="277.33"/>
<rect x="143.25" y="351.99" style="fill:#A1B8D8;" width="41.996" height="16.25"/>
<polygon style="fill:#6C819F;" points="255.565,368.363 231.721,354.473 239.9,340.432 255.566,349.557 275.323,338.05 
	299.171,351.939 290.992,365.981 275.323,356.855 "/>
<rect x="143.25" y="317.44" style="fill:#A1B8D8;" width="59.27" height="16.25"/>
<polygon style="fill:#467BCA;" points="394.667,181.201 377.391,164.014 366.549,256.044 377.391,348.074 394.667,348.074 "/>
<polygon style="fill:#68B7EA;" points="377.302,163.926 360.116,181.201 360.116,348.074 377.391,348.074 377.391,164.014 "/>
<g>
	<polygon style="fill:#6C819F;" points="256.828,143.759 221.45,143.759 216.029,151.884 221.45,160.009 256.828,160.009 	"/>
	<polygon style="fill:#6C819F;" points="299.653,178.31 221.45,178.31 216.029,186.435 221.45,194.56 299.653,194.56 	"/>
	<polygon style="fill:#6C819F;" points="299.653,212.86 221.45,212.86 216.029,220.985 221.45,229.11 299.653,229.11 	"/>
	<polygon style="fill:#6C819F;" points="299.653,247.41 221.45,247.41 216.029,255.535 221.45,263.66 299.653,263.66 	"/>
</g>
<g>
	<rect x="143.25" y="212.86" style="fill:#A1B8D8;" width="78.2" height="16.25"/>
	<rect x="143.25" y="247.41" style="fill:#A1B8D8;" width="78.2" height="16.25"/>
	<rect x="186.07" y="143.76" style="fill:#A1B8D8;" width="35.38" height="16.25"/>
	<rect x="143.25" y="178.31" style="fill:#A1B8D8;" width="78.2" height="16.25"/>
</g>
<g>
</g>
<g>
</g>
<g>
</g>
<g>
</g>
<g>
</g>
<g>
</g>
<g>
</g>
<g>
</g>
<g>
</g>
<g>
</g>
<g>
</g>
<g>
</g>
<g>
</g>
<g>
</g>
<g>
</g>
</svg>
